<?xml version="1.0" encoding="utf-8"?>
<!-- Generator: Adobe Illustrator 22.0.0, SVG Export Plug-In . SVG Version: 6.00 Build 0)  -->
<svg version="1.1" id="Layer_1" xmlns="http://www.w3.org/2000/svg" xmlns:xlink="http://www.w3.org/1999/xlink" x="0px" y="0px"
	 viewBox="0 0 100 100" style="enable-background:new 0 0 100 100;" xml:space="preserve">
<style type="text/css">
	.st0{fill-rule:evenodd;clip-rule:evenodd;fill:#555555;}
</style>
<path class="st0" d="M50,2C22.8,2,0.8,24.1,0.8,51.2c0,21.7,14.1,40.2,33.6,46.7c2.5,0.5,3.4-1.1,3.4-2.4c0-1.2,0-4.3-0.1-8.4
	c-13.7,3-16.6-6.6-16.6-6.6c-2.2-5.7-5.5-7.2-5.5-7.2c-4.5-3.1,0.3-3,0.3-3c4.9,0.3,7.5,5.1,7.5,5.1c4.4,7.5,11.5,5.3,14.3,4.1
	c0.4-3.2,1.7-5.3,3.1-6.6c-10.9-1.2-22.4-5.5-22.4-24.3c0-5.4,1.9-9.8,5.1-13.2c-0.5-1.2-2.2-6.2,0.5-13c0,0,4.1-1.3,13.5,5
	c3.9-1.1,8.1-1.6,12.3-1.7c4.2,0,8.4,0.6,12.3,1.7c9.4-6.4,13.5-5,13.5-5c2.7,6.8,1,11.8,0.5,13c3.2,3.4,5.1,7.8,5.1,13.2
	c0,18.9-11.5,23-22.5,24.3c1.8,1.5,3.3,4.5,3.3,9.1c0,6.6-0.1,11.9-0.1,13.5c0,1.3,0.9,2.8,3.4,2.4c19.5-6.5,33.6-24.9,33.6-46.7
	C99.2,24.1,77.2,2,50,2z"/>
</svg>
